<svg xmlns="http://www.w3.org/2000/svg" viewBox="-8 -8 1916 676" width="1916" height="676"><title>Reading a file and rendering it</title><rect x="-8" y="-8" width="1916" height="676" fill="#F9F6F0"></rect><style>.pn-element {
  font-family: "Liberation Sans";
}
.pn-shape {
  fill: #FAF8F2;
  stroke: #38342E;
  stroke-width: 2;
}
.pn-actor {
  fill: #EAE5DA;
}
.pn-process {
  fill: #E7E9E1;
}
.pn-store {
  fill: none;
  stroke-width: 2.5;
}
.pn-boundary-box,
.pn-boundary-curve {
  fill: none;
  stroke: #6B655C;
  stroke-width: 2;
  stroke-dasharray: 8 6;
}
.pn-out-of-scope {
  opacity: 0.5;
}
.pn-out-of-scope .pn-shape {
  stroke-dasharray: 6 4;
}
.pn-label {
  fill: #38342E;
  font-size: 10px;
  font-weight: 500;
  text-anchor: middle;
  dominant-baseline: central;
}
.pn-note {
  fill: #6B655C;
  font-size: 12px;
  text-anchor: middle;
  dominant-baseline: central;
}
.pn-flow {
  fill: none;
}
.pn-flow-arrow {
  fill: #38342E;
  stroke: none;
}
.pn-flow-label {
  fill: #6B655C;
  font-size: 10px;
  text-anchor: middle;
  dominant-baseline: central;
  paint-order: stroke;
  stroke: #F9F6F0;
  stroke-width: 3;
  stroke-linejoin: round;
}
.pn-badge {
  stroke: #FAF8F2;
  stroke-width: 3;
}
.pn-badge-count {
  fill: #FAF8F2;
  stroke: none;
  font-weight: 600;
  text-anchor: middle;
  dominant-baseline: central;
}
.pn-badge-primary .pn-badge-count {
  font-size: 11px;
}
.pn-badge-secondary .pn-badge-count {
  font-size: 9px;
}
.pn-badge-mark {
  fill: #FAF8F2;
  stroke: none;
  font-size: 9px;
  font-weight: 700;
  text-anchor: middle;
  dominant-baseline: central;
}
.pn-badge-flag {
  stroke-linejoin: round;
}
.pn-tone-critical {
  fill: #C14339;
}
.pn-tone-high {
  fill: #A85E1D;
}
.pn-tone-medium {
  fill: #46788A;
}
.pn-tone-low {
  fill: #4B6B50;
}
.pn-tone-neutral {
  fill: #756E63;
}
.pn-tone-flag {
  fill: #38342E;
}

.pn-tone-low { fill: #4B6B50; stroke: #4B6B50; stroke-width: 3; }
.pn-tone-low ~ .pn-badge-count, .pn-tone-low ~ .pn-badge-mark { fill: #FAF8F2; }
.pn-tone-medium { fill: #46788A; stroke: #46788A; stroke-width: 3; }
.pn-tone-medium ~ .pn-badge-count, .pn-tone-medium ~ .pn-badge-mark { fill: #FAF8F2; }
.pn-tone-high { fill: #A85E1D; stroke: #A85E1D; stroke-width: 3; }
.pn-tone-high ~ .pn-badge-count, .pn-tone-high ~ .pn-badge-mark { fill: #FAF8F2; }
.pn-tone-critical { fill: #C14339; stroke: #C14339; stroke-width: 3; }
.pn-tone-critical ~ .pn-badge-count, .pn-tone-critical ~ .pn-badge-mark { fill: #FAF8F2; }
.pn-tone-neutral { fill: #756E63; stroke: #756E63; stroke-width: 3; }
.pn-tone-neutral ~ .pn-badge-count, .pn-tone-neutral ~ .pn-badge-mark { fill: #FAF8F2; }
.pn-tone-flag { fill: #38342E; stroke: #38342E; stroke-width: 3; }
.pn-tone-flag ~ .pn-badge-count, .pn-tone-flag ~ .pn-badge-mark { fill: #FAF8F2; }</style><g transform="translate(0, 60)"><g class="pn-element"><rect class="pn-shape pn-boundary-box" width="260" height="360"></rect><text class="pn-label" x="130" y="11"><tspan x="130" dy="0">Foreign input</tspan></text></g></g><g transform="translate(500, 0)"><g class="pn-element"><rect class="pn-shape pn-boundary-box" width="760" height="660"></rect><text class="pn-label" x="380" y="11"><tspan x="380" dy="0">Saerskriven process</tspan></text></g></g><g transform="translate(40, 100)"><g class="pn-element"><rect class="pn-shape pn-actor" width="200" height="70"></rect><text class="pn-label" x="100" y="35"><tspan x="100" dy="0">Model author or upstream tool</tspan></text></g></g><g transform="translate(40, 300)"><g class="pn-element"><line class="pn-shape pn-store" x1="0" y1="0" x2="200" y2="0"></line><line class="pn-shape pn-store" x1="0" y1="80" x2="200" y2="80"></line><text class="pn-label" x="100" y="40"><tspan x="100" dy="0">Threat model file</tspan></text></g></g><g transform="translate(540, 270)"><g class="pn-element"><circle class="pn-shape pn-process" cx="70" cy="70" r="70"></circle><text class="pn-label" x="70" y="70"><tspan x="70" dy="0">Codec read</tspan></text></g></g><g transform="translate(780, 300)"><g class="pn-element"><line class="pn-shape pn-store" x1="0" y1="0" x2="200" y2="0"></line><line class="pn-shape pn-store" x1="0" y1="80" x2="200" y2="80"></line><text class="pn-label" x="100" y="40"><tspan x="100" dy="0">Internal model</tspan></text></g></g><g transform="translate(1080, 60)"><g class="pn-element"><circle class="pn-shape pn-process" cx="70" cy="70" r="70"></circle><text class="pn-label" x="70" y="63.75"><tspan x="70" dy="0">Markdown</tspan><tspan x="70" dy="12.5">register</tspan></text><g class="pn-badge" transform="translate(140, 0)"><g class="pn-badge-primary"><circle class="pn-tone-medium" r="13"></circle><text class="pn-badge-count" y="-3">2</text><text class="pn-badge-mark" y="6">M</text></g></g></g></g><g transform="translate(1080, 270)"><g class="pn-element"><circle class="pn-shape pn-process" cx="70" cy="70" r="70"></circle><text class="pn-label" x="70" y="63.75"><tspan x="70" dy="0">Canvas glyphs</tspan><tspan x="70" dy="12.5">and SVG</tspan></text><g class="pn-badge" transform="translate(140, 0)"><g class="pn-badge-primary"><circle class="pn-tone-medium" r="13"></circle><text class="pn-badge-count" y="-3">2</text><text class="pn-badge-mark" y="6">M</text></g></g></g></g><g transform="translate(1080, 480)"><g class="pn-element"><circle class="pn-shape pn-process" cx="70" cy="70" r="70"></circle><text class="pn-label" x="70" y="70"><tspan x="70" dy="0">Codec write</tspan></text></g></g><g transform="translate(1440, 300)"><g class="pn-element"><line class="pn-shape pn-store" x1="0" y1="0" x2="220" y2="0"></line><line class="pn-shape pn-store" x1="0" y1="80" x2="220" y2="80"></line><text class="pn-label" x="110" y="40"><tspan x="110" dy="0">Rendered and saved files</tspan></text></g></g><g transform="translate(1760, 270)"><g class="pn-element pn-out-of-scope"><circle class="pn-shape pn-process" cx="70" cy="70" r="70"></circle><text class="pn-label" x="70" y="63.75"><tspan x="70" dy="0">Downstream site</tspan><tspan x="70" dy="12.5">generator</tspan></text></g></g><g transform="translate(540, 470)"><g class="pn-element"><text class="pn-note" x="130" y="42.5"><tspan x="130" dy="0">Every read is bounded before anything</tspan><tspan x="130" dy="15">trusts it. 8 MiB of text, 64 levels</tspan><tspan x="130" dy="15">of nesting, 50 aliases, and 100,000</tspan><tspan x="130" dy="15">nodes those aliases may reach.</tspan></text></g></g><g class="pn-element"><path class="pn-shape pn-flow" d="M 140 170 L 140 300"></path><path class="pn-flow-arrow" d="M 140 300 L 133 282 L 147 282 Z"></path><text class="pn-flow-label" x="195.25" y="235"><tspan x="195.25" dy="0">Writes the file</tspan></text></g><g class="pn-element"><path class="pn-shape pn-flow" d="M 240 340 L 540 340"></path><path class="pn-flow-arrow" d="M 540 340 L 522 347 L 522 333 Z"></path><text class="pn-flow-label" x="390" y="359"><tspan x="390" dy="0">A text of unknown format</tspan></text></g><g class="pn-element"><path class="pn-shape pn-flow" d="M 680 340 L 780 340"></path><path class="pn-flow-arrow" d="M 780 340 L 762 347 L 762 333 Z"></path><text class="pn-flow-label" x="730" y="359"><tspan x="730" dy="0">Mapped records</tspan><tspan x="730" dy="12.5">and divergences</tspan></text></g><g class="pn-element"><path class="pn-shape pn-flow" d="M 980 340 L 1030 130 L 1080 130"></path><path class="pn-flow-arrow" d="M 1080 130 L 1062 137 L 1062 123 Z"></path><text class="pn-flow-label" x="1050.976" y="245.947"><tspan x="1050.976" dy="0">Threat prose</tspan></text></g><g class="pn-element"><path class="pn-shape pn-flow" d="M 980 340 L 1080 340"></path><path class="pn-flow-arrow" d="M 1080 340 L 1062 347 L 1062 333 Z"></path><text class="pn-flow-label" x="1030" y="359"><tspan x="1030" dy="0">Elements</tspan><tspan x="1030" dy="12.5">and geometry</tspan></text></g><g class="pn-element"><path class="pn-shape pn-flow" d="M 980 340 L 1030 550 L 1080 550"></path><path class="pn-flow-arrow" d="M 1080 550 L 1062 557 L 1062 543 Z"></path><text class="pn-flow-label" x="979.844" y="450.989"><tspan x="979.844" dy="0">Save</tspan></text></g><g class="pn-element"><path class="pn-shape pn-flow" d="M 1220 130 L 1550 180 L 1550 300"></path><path class="pn-flow-arrow" d="M 1550 300 L 1543 282 L 1557 282 Z"></path><text class="pn-flow-label" x="1381.113" y="180.654"><tspan x="1381.113" dy="0">Register markdown</tspan></text></g><g class="pn-element"><path class="pn-shape pn-flow" d="M 1220 340 L 1440 340"></path><path class="pn-flow-arrow" d="M 1440 340 L 1422 347 L 1422 333 Z"></path><text class="pn-flow-label" x="1330" y="359"><tspan x="1330" dy="0">Diagram SVG</tspan></text></g><g class="pn-element"><path class="pn-shape pn-flow" d="M 1220 550 L 1550 500 L 1550 380"></path><path class="pn-flow-arrow" d="M 1550 380 L 1557 398 L 1543 398 Z"></path><text class="pn-flow-label" x="1388.825" y="550.247"><tspan x="1388.825" dy="0">Saved model file</tspan></text></g><g class="pn-element"><path class="pn-shape pn-flow" d="M 1660 340 L 1760 340"></path><path class="pn-flow-arrow" d="M 1760 340 L 1742 347 L 1742 333 Z"></path><text class="pn-flow-label" x="1710" y="359"><tspan x="1710" dy="0">Published register</tspan></text></g></svg>
